<?xml version="1.0" encoding="utf-8"?>
<!-- Generator: Adobe Illustrator 26.0.0, SVG Export Plug-In . SVG Version: 6.00 Build 0)  -->
<svg version="1.1" id="Capa_1" xmlns="http://www.w3.org/2000/svg" xmlns:xlink="http://www.w3.org/1999/xlink" x="0px" y="0px"
	 viewBox="0 0 273 60.7" style="enable-background:new 0 0 273 60.7;" xml:space="preserve">
<style type="text/css">
	.st0{fill:#FFFFFF;}
</style>
<g>
	<path class="st0" d="M107.5,14.8c-4.4,3.3-8.7,6.5-13.1,9.8c-1.1,0.8-1.2,1.4-0.1,2.5c3.9,3.8,7.6,7.8,11.4,11.7
		c0.1,0.1,0.1,0.4,0.2,0.6c-1.6,0.8-2.7,0.2-3.8-1c-3.1-3.3-6.4-6.5-9.4-9.9c-1-1.1-1.6-1.2-2.9-0.4c-3.4,2.3-5.7,4.9-4.8,9.4
		c0.2,0.8,0.5,2.2-1.2,2.1c-1.7-0.1-1-1.4-1-2.3c-0.1-7,0-14,0-21c0-0.8-0.5-2.2,1.2-2.1c1.4,0.1,1,1.2,1,2c0,4,0,8.1,0,12.6
		c7.1-4.8,13.1-10.4,20-14.7C106,14.1,107.1,13.2,107.5,14.8z"/>
	<path class="st0" d="M190,23.4c3-2.2,5.9-3.3,9.2-2.9c3.6,0.4,6.2,2.6,6.4,6.2c0.2,3.8,0.1,7.7,0.1,11.6c0,0.7,0,1.4-1,1.4
		c-1.1,0-1.3-0.5-1.3-1.5c0-3.7,0-7.3-0.2-11c-0.2-3.5-2.2-5-5.7-4.7c-4.4,0.3-7.4,3.5-7.4,7.8c0,2.5,0,4.9,0,7.4
		c0,0.9,0.2,1.8-1.2,1.9c-1.4,0.1-1.3-0.9-1.3-1.8c0-7.6,0-15.2,0-22.8c0-0.8-0.2-1.9,1.2-1.8c1.4,0,1.3,0.9,1.3,1.8
		C190,17.6,190,20.2,190,23.4z"/>
	<path class="st0" d="M135.5,20.7c1.8-0.6,2.8,0,3.5,1.4c2.5,4.7,5.2,9.3,8.1,14.3c2.7-4.9,5.1-9.4,7.5-13.9c0.3-0.6,0.6-1.3,1-1.8
		c0.6-0.6,1.6-0.6,2.2-0.1c0.6,0.5-0.1,1.1-0.4,1.5c-4,7.6-8.1,15.1-12.1,22.6c-0.6,1.2-1.3,2.3-2.8,2.3c-0.8,0-2,0.5-2.3-0.7
		c-0.3-1.3,0.8-1.1,1.7-1.4c2-0.6,3.8-6,2.8-7.9C141.7,31.7,138.7,26.3,135.5,20.7z"/>
	<path class="st0" d="M255.2,23.3c3.1-2.2,6.3-3.2,9.9-2.7c3,0.4,5.1,2,5.4,5c0.3,4.2,0.2,8.5,0.3,12.7c0,1-0.4,1.5-1.4,1.4
		c-1,0-1-0.8-1-1.5c-0.2-3.9,0.4-7.9-0.4-11.8c-0.6-3-1.8-4.1-4.8-4c-5.1,0.2-8.3,3.3-8.3,8.3c0,2.4,0,4.7,0,7.1
		c0,0.9,0,1.8-1.3,1.8c-1.4,0-1.2-1-1.2-1.9c0-4.9,0-9.9,0-14.8c0-0.9-0.7-2.4,1.1-2.5C255.5,20.2,254.7,22,255.2,23.3z"/>
	<path class="st0" d="M180.9,25.2c-1.3,0.9-2.1,0.6-3.2-0.5c-3.2-3.2-9.3-3-12.3,0.2c-3,3.3-2.9,7.4,0.3,10.5
		c3.5,3.3,9.5,3.4,12.6,0c0.9-1,1.7-1.7,2.6-0.8c0.9,0.9-0.3,1.7-0.9,2.4c-2.8,2.9-8.7,3.8-12.8,2c-4.1-1.8-6.7-5.8-6.4-9.7
		c0.3-3.9,3.4-7.5,7.6-8.5C173.1,19.7,179,20.5,180.9,25.2z"/>
	<path class="st0" d="M214.3,23.1c1.7-1.3,3.4-2.3,5.5-2.4c0.9,0,2.1-1,2.5,0.5c0.4,1.6-1.1,1.2-1.9,1.5c-0.9,0.3-1.9,0.6-2.7,1
		c-2.4,1.1-3.6,2.9-3.6,5.6c0,2.9,0,5.7,0,8.6c0,1-0.1,1.8-1.4,1.7c-1.2-0.1-1.1-0.9-1.1-1.7c0-5,0-10.1,0-15.1
		c0-0.9-0.7-2.4,1.2-2.4C214.6,20.4,213.6,22.1,214.3,23.1z"/>
	<path class="st0" d="M107.5,14.8c-0.6-1-1.7-0.2-2.4-0.7C107.2,13.3,107.6,13.5,107.5,14.8z"/>
	<g>
		<path class="st0" d="M31.7,1.4C15.2,1.6,2.4,14.2,2.5,30.4c0.1,16.1,12.3,28.5,29,28.8c16,0.3,29.2-13,29.2-29.2
			C60.7,14.3,47.6,1.4,31.7,1.4z M30.5,55.1c-13.8-1.3-23-12.6-23.1-24.3C7.3,18.5,16.1,7.6,28,5.8C40.6,3.9,52.6,11,55.8,22.2
			c-2.8,0.8-4.2-0.2-5.6-2.6c-4.7-8.3-15-12.2-24.1-9.3c-10.1,3.3-15.1,12-14.7,20.7c0.4,10.2,7.9,18.3,17.7,19.8
			c8.6,1.4,17.2-2.5,21.3-10.2c1.4-2.6,2.9-3.1,5.4-2.4C53.2,48.4,41.3,56.2,30.5,55.1z M30.2,41c0.1,1.3,0.7,2.9-1.9,3
			c-2.8,0.1-2.1-1.7-2.1-3.1c0-6.1-0.1-12.2,0-18.4c0-2.1-0.5-2.9-2.6-2.6c-1,0.1-2,0-3,0c-1.3,0-1.4-0.8-1.3-1.8c0-1-0.2-2,1.4-2
			c5.2,0,10.4,0,15.5,0c1.4,0,1.4,0.8,1.3,1.8c-0.1,0.9,0.4,1.9-1.3,2.1c-2,0.2-4.8-1.3-5.9,0.9c-0.8,1.7-0.2,4.1-0.2,6.1
			c0,1.2,0,2.4,0,4.4c2.7-2.7,5-4.7,6.9-7c2-2.5,4.4-2.9,8-2.2c-2.5,2.5-4.6,4.8-7.1,6.7c-2.1,1.7-1.5,2.9-0.1,4.4
			c2.9,3.3,5.6,6.6,8.6,10.2c-3,0.6-5.4,0.7-7.3-2.1c-1.8-2.7-4-5.1-6-7.4C30.2,35.7,30,38.2,30.2,41z"/>
	</g>
	<g>
		<path class="st0" d="M133.4,29c-0.5-5-5.9-9-11.8-8.7c-5.6,0.3-10.2,4.4-10.4,9.4c-0.2,3.8,2.5,7.6,6.5,9.3
			c4.2,1.8,9.9,0.8,12.7-2.1c0.6-0.6,2-1.4,1-2.3c-0.9-0.9-1.8,0-2.7,0.9c-4.2,4.1-11.6,2.9-14.3-2.2c-0.7-1.3-1-2.1,1.1-2
			c2.6,0.1,5.2,0,7.8,0c2.6,0,5.2-0.2,7.8,0.1C133.2,31.6,133.5,30.7,133.4,29z M115.4,29.2c-2.1,0-1.4-1.1-1-2.1
			c1.4-3.2,4.7-4.9,8.8-4.6c4,0.3,6.4,2.5,7.4,6.6C125.5,29.1,120.5,29.1,115.4,29.2z"/>
	</g>
	<g>
		<path class="st0" d="M236.5,20.4c-5.9-0.1-11,4.3-11.1,9.6c-0.1,5.1,4.9,10.2,11.1,9.9c6.1,0,11-4.2,11.1-9.5
			C247.6,24.9,242.6,20.4,236.5,20.4z M236.5,37.9c-4.7,0-8.8-3.7-8.7-7.9c0-4,4.1-7.6,8.6-7.7c4.6,0,8.7,3.7,8.7,7.9
			C245.1,34.3,241,37.9,236.5,37.9z"/>
	</g>
</g>
</svg>
