<?xml version="1.0" encoding="utf-8"?>
<!-- Generator: Adobe Illustrator 26.0.0, SVG Export Plug-In . SVG Version: 6.00 Build 0)  -->
<svg version="1.1" id="Capa_1" xmlns="http://www.w3.org/2000/svg" xmlns:xlink="http://www.w3.org/1999/xlink" x="0px" y="0px"
	 viewBox="0 0 116.2 41.9" style="enable-background:new 0 0 116.2 41.9;" xml:space="preserve">
<style type="text/css">
	.st0{fill:#FFFFFF;}
	.st1{fill:#3C3C3B;}
</style>
<g>
	<path class="st0" d="M103,8.4H21.5c-1.7,0-3.1,1.4-3.1,3.1v16.1c0,1.7,1.4,3.1,3.1,3.1H103c1.1,0,2-0.9,2-2V10.4
		C105,9.3,104.2,8.4,103,8.4z"/>
	<path class="st1" d="M18.1,8.2L12,15.8v15.5c0,0,1.1,1.9,1.5,2s1.9,1.1,3.6,1.1c1.7,0,19.2,0.2,20.4-0.7c1.3-0.9,2.4-3.8,2-8.3
		c-0.3-4.4,0.1-9.1-0.3-9.7c-0.4-0.7-6.6-7.5-6.6-7.5L31,7.8H20.9L18.1,8.2z"/>
	<path class="st0" d="M31.4,11c-0.2-0.2-0.5-0.3-1.1-0.3h-0.6l-4.2,6.7l-3.7-6c-0.2-0.3-0.4-0.5-0.5-0.6c-0.2-0.1-0.5-0.2-0.8-0.2
		h-1.1v12.6h1.8v-10l3.7,6.1H26l3.8-6.1v10h1.9V11.8C31.7,11.4,31.6,11.1,31.4,11z"/>
	<path class="st1" d="M43.1,21.6v-8.3c0-0.8,0.2-1.4,0.7-1.8c0.5-0.3,1.3-0.5,2.3-0.5h4.3c1.1,0,1.8,0.2,2.3,0.5
		c0.5,0.4,0.7,0.9,0.7,1.8v8.3c0,0.8-0.2,1.4-0.7,1.8c-0.5,0.3-1.3,0.5-2.3,0.5h-4.3c-1,0-1.8-0.2-2.3-0.5
		C43.4,23,43.1,22.4,43.1,21.6z M51.3,12.5h-5.9c-0.1,0-0.2,0.1-0.2,0.2v9.5c0,0.1,0.1,0.2,0.2,0.2h5.9c0.2,0,0.2-0.1,0.2-0.2v-9.5
		C51.5,12.5,51.4,12.5,51.3,12.5z"/>
	<path class="st1" d="M59.1,23.7V11.1l6.6-0.1c1.1,0,1.9,0.2,2.5,0.6c0.5,0.4,0.8,1,0.8,1.9v7.8c0,0.9-0.3,1.5-0.9,1.9
		c-0.6,0.4-1.4,0.6-2.5,0.6L59.1,23.7z M66.7,12.5h-5.6v9.9h5.6c0.2,0,0.3-0.1,0.3-0.3v-9.4C67,12.6,66.9,12.5,66.7,12.5z"/>
	<path class="st1" d="M82.9,18.9c-0.3-0.4-0.5-0.8-0.7-1.1c-0.2-0.2-0.5-0.4-0.8-0.5c0.1,0,0.2-0.1,0.3-0.2c0.2-0.1,0.4-0.3,0.5-0.5
		c0.2-0.2,0.3-0.5,0.5-0.9l2.4-4.6h-2l-2.8,5.3c0,0.1-0.1,0.1-0.1,0.1c0,0-0.1,0-0.2,0h-3.5v-5.5h-1.9v12.6h1.9v-5.7h3.5
		c0.1,0,0.1,0,0.2,0c0,0,0.1,0.1,0.1,0.1l3.2,5.5h2.1L82.9,18.9z"/>
	<path class="st1" d="M98.3,11.1l-3.1,6.5c0,0.1-0.1,0.2-0.3,0.2h-1.2c-0.1,0-0.2-0.1-0.3-0.2l-3.1-6.5h-2.1l3,6.3
		c0.2,0.5,0.4,0.8,0.6,1.1c0.2,0.3,0.5,0.4,0.8,0.5c0.2,0.1,0.4,0.1,0.6,0.1v4.6h2v-4.6c0.3,0,0.5-0.1,0.6-0.1
		c0.3-0.1,0.6-0.3,0.8-0.5s0.4-0.6,0.6-1.1l3-6.3H98.3z"/>
	<path class="st0" d="M39.1,14.3l-4.8-5.4h0c-0.8-1-2-1.7-3.4-1.7H20.2c-1.4,0-2.6,0.7-3.4,1.7L16.7,9l-4.6,5.2l0,0
		c-0.6,0.7-1,1.7-1,2.6v0v12.9c0,2.8,2.2,5,5,5h19c2.8,0,5-2.2,5-5V16.9v0C40.1,15.9,39.8,15,39.1,14.3L39.1,14.3z M20.2,8.2h10.7
		c1.9,0,3.4,1.5,3.4,3.4v10.7c0,1.9-1.5,3.4-3.4,3.4H20.2c-1.9,0-3.4-1.5-3.4-3.4V11.6C16.8,9.7,18.3,8.2,20.2,8.2z M15.8,11.5
		c0,0,0,0.1,0,0.2v10.7c0,0.9,0.3,1.7,0.7,2.4l-4.4,5V16.5c0-0.6,0.2-1.1,0.6-1.5L15.8,11.5z M35.1,33.7h-19c-1.8,0-3.3-1.1-3.8-2.7
		l4.8-5.5c0.8,0.7,1.8,1.2,3,1.2h10.7c1.2,0,2.3-0.5,3.1-1.3c0,0,0,0,0,0l4.9,5.5C38.4,32.6,36.9,33.7,35.1,33.7z M39.1,29.7
		l-4.5-5.1c0.4-0.7,0.7-1.5,0.7-2.3V11.6c0-0.1,0-0.1,0-0.2l3.3,3.7c0.4,0.4,0.6,0.9,0.6,1.5V29.7z"/>
</g>
</svg>
